<svg id="Layer_1" data-name="Layer 1" xmlns="http://www.w3.org/2000/svg" viewBox="0 0 815.97 350.78"><defs><style>.cls-1{fill:#fff;}.cls-2{fill:#5fc97e;}</style></defs><path class="cls-1" d="M809.05,76.94H760.27l-1.1,3.32L714,216.51,671.16,80.7l-1.06-3.38H612.31l2.3,6.46,71.81,201.06-1.15,3.35c-4.74,14.22-9.95,18.33-23.27,18.33H633.85v44.26h34.4c33.31,0,52.63-13.72,64.61-45.88L813.6,83.44l2.37-6.5Z"/><path class="cls-1" d="M599.46,121.3h6.76l-2.17-6.4L592.3,80.22l-1.11-3.28h-31.8V0H507.45V76.94H476.19V121.3h31.26V232.24c0,46.72,42.16,46.72,56,46.72,15.7,0,36-2,36.87-2.11l4.35-.44v-45l-5.49.74a183.79,183.79,0,0,1-24.59,1.66h-.51c-12.83,0-14.6-5.19-14.6-10.79V121.3Z"/><polygon class="cls-1" points="412.06 1.04 407.22 1.04 407.22 5.88 407.22 272.41 407.22 277.25 412.06 277.25 453.75 277.25 458.59 277.25 458.59 272.41 458.59 5.88 458.59 1.04 453.75 1.04 412.06 1.04"/><path class="cls-1" d="M383.54,194.82v-6.48c-.16-37.31-10.88-67.87-31-88.42-17.94-18.3-43.3-28.38-71.41-28.38h0C221.92,71.84,179,116.15,179,176.91c0,61.05,43.48,105.37,103.38,105.37,1.12,0,2.41.07,3.7.07a102.36,102.36,0,0,0,93.29-60.45l3-6.63-7.26-.19-47.37-1.23-2.59-.07-1.5,2.12a47.22,47.22,0,0,1-38.54,20c-.7,0-1.4,0-2.1,0h-.58a48.58,48.58,0,0,1-48-41H383.54Zm-57.47-40.57H234.45a47.58,47.58,0,0,1,46.05-36h1.73A45,45,0,0,1,326.07,154.25Z"/><polygon class="cls-1" points="4.84 76.94 0 76.94 0 81.78 0 116.46 0 121.3 4.84 121.3 150.18 121.3 153.56 76.94 4.84 76.94"/><polygon class="cls-1" points="65.8 232.9 16.08 232.9 12.68 277.25 161.65 277.25 166.49 277.25 166.49 272.41 166.49 237.74 166.49 232.9 161.65 232.9 65.8 232.9"/><path class="cls-2" d="M7.06,154.91h196.5a0,0,0,0,1,0,0v0a44.36,44.36,0,0,1-44.36,44.36H-37.3a0,0,0,0,1,0,0v0A44.36,44.36,0,0,1,7.06,154.91Z" transform="translate(-100.22 108.89) rotate(-44.45)"/></svg>